# xmcd
#
# Track frame offsets:
#      150
#      19222
#      29251
#      44260
#      58439
#      74416
#      88284
#      104599
#      125503
#      147086
#      163753
#      181212
#      192931
#      215513
#      239645
#      258343
# 
# Disc length: 3716 seconds
#
# Revision: 1
# Processed by: cddbd v1.4PL0 Copyright (c) Steve Scherf et al.
#
# Submitted via: FreeRIP 1.21
#
DISCID=f70e8210
DTITLE=咖啡情歌Love Songs In Caf'e - 咖啡情歌Love Songs In Caf'e
DYEAR=2003
DGENRE=New Age
TTITLE0=Les Vienx Amants一對老戀人
TTITLE1=Parlz Moi D' Amour情話
TTITLE2=La Vie En Rose玫瑰人生
TTITLE3=J'Ai Deux Amour我的兩個最愛
TTITLE4=L'arrivee Dans Le Jour早晨到達
TTITLE5=Por Debajo De La Mesa心話
TTITLE6=Un Amour喔   愛
TTITLE7=No Me Ames你不愛我
TTITLE8=Amado Mio阿曼都米歐
TTITLE9=L'avalanche拉法隆柯
TTITLE10=Ce Train Quisen Va離去的列車
TTITLE11=Vera C.薇西莉雅
TTITLE12=Je Te Rends Ton Amoue我把愛還給你
TTITLE13=Besame Mucho吻我
TTITLE14=Mas Es Amar傷心眼神
TTITLE15='O Mare E Tu海興你
EXTD=YEAR: 2003
EXTT0=
EXTT1=
EXTT2=
EXTT3=
EXTT4=
EXTT5=
EXTT6=
EXTT7=
EXTT8=
EXTT9=
EXTT10=
EXTT11=
EXTT12=
EXTT13=
EXTT14=
EXTT15=
PLAYORDER=
